<svg width="16" height="16" viewBox="0 0 16 16" fill="none" xmlns="http://www.w3.org/2000/svg">
<path fill-rule="evenodd" clip-rule="evenodd" d="M10.6666 12C8.45745 12 6.66658 10.2091 6.66658 8C6.66658 5.79086 8.45745 4 10.6666 4C12.8757 4 14.6666 5.79086 14.6666 8C14.6666 10.2091 12.8757 12 10.6666 12ZM10.6501 5.55556H10.6877C10.8019 5.55556 10.8975 5.64207 10.9088 5.75567L11.111 7.77778L12.5546 8.60269C12.6238 8.64225 12.6666 8.71588 12.6666 8.79563V8.88889C12.6666 8.98263 12.5906 9.05862 12.4968 9.05862C12.4818 9.05862 12.4667 9.05661 12.4522 9.05264L10.3993 8.49277C10.2965 8.46472 10.228 8.36761 10.2362 8.26133L10.4286 5.76074C10.4375 5.64496 10.534 5.55556 10.6501 5.55556ZM5.11103 4.88889H2.8888C2.52061 4.88889 2.22214 5.18737 2.22214 5.55556C2.22214 5.92375 2.52061 6.22222 2.8888 6.22222H5.11103C5.47922 6.22222 5.77769 5.92375 5.77769 5.55556C5.77769 5.18737 5.47922 4.88889 5.11103 4.88889ZM5.11103 10.2222H2.8888C2.52061 10.2222 2.22214 10.5207 2.22214 10.8889C2.22214 11.2571 2.52061 11.5556 2.8888 11.5556H5.11103C5.47922 11.5556 5.77769 11.2571 5.77769 10.8889C5.77769 10.5207 5.47922 10.2222 5.11103 10.2222ZM1.99992 7.55556H3.7777C4.14589 7.55556 4.44436 7.85403 4.44436 8.22222C4.44436 8.59041 4.14589 8.88889 3.7777 8.88889H1.99992C1.63173 8.88889 1.33325 8.59041 1.33325 8.22222C1.33325 7.85403 1.63173 7.55556 1.99992 7.55556Z" fill="white"/>
</svg>
