<svg width="10" height="18" viewBox="0 0 10 18" fill="none" xmlns="http://www.w3.org/2000/svg">
<rect opacity="0.3" x="0.714233" y="0.692322" width="8.57143" height="16.6154" rx="1.52308" fill="#22A45D"/>
<path fill-rule="evenodd" clip-rule="evenodd" d="M0 3.32308C0 2.15989 0 1.5783 0.226371 1.13402C0.425493 0.743222 0.743222 0.425493 1.13402 0.226371C1.5783 0 2.15989 0 3.32308 0H6.67692C7.84011 0 8.4217 0 8.86598 0.226371C9.25678 0.425493 9.57451 0.743222 9.77363 1.13402C10 1.5783 10 2.15989 10 3.32308V14.6769C10 15.8401 10 16.4217 9.77363 16.866C9.57451 17.2568 9.25678 17.5745 8.86598 17.7736C8.4217 18 7.84011 18 6.67692 18H3.32308C2.15989 18 1.5783 18 1.13402 17.7736C0.743222 17.5745 0.425493 17.2568 0.226371 16.866C0 16.4217 0 15.8401 0 14.6769V3.32308ZM0.714286 3.12923C0.714286 2.27623 0.714286 1.84973 0.880291 1.52392C1.02631 1.23734 1.25931 1.00434 1.5459 0.858313C1.8717 0.692308 2.29821 0.692308 3.15121 0.692308H3.57143V0.830769C3.57143 1.13665 3.81939 1.38462 4.12528 1.38462H5.87473C6.18061 1.38462 6.42857 1.13665 6.42857 0.830769V0.692308H6.84879C7.70179 0.692308 8.1283 0.692308 8.4541 0.858313C8.74068 1.00434 8.97369 1.23734 9.11971 1.52392C9.28571 1.84973 9.28571 2.27623 9.28571 3.12923V14.8708C9.28571 15.7238 9.28571 16.1503 9.11971 16.4761C8.97369 16.7627 8.74068 16.9957 8.4541 17.1417C8.1283 17.3077 7.70179 17.3077 6.84879 17.3077H3.15121C2.29821 17.3077 1.8717 17.3077 1.5459 17.1417C1.25931 16.9957 1.02631 16.7627 0.880291 16.4761C0.714286 16.1503 0.714286 15.7238 0.714286 14.8708V3.12923Z" fill="#22A45D"/>
</svg>
