<svg width="18" height="16" viewBox="0 0 18 16" fill="none" xmlns="http://www.w3.org/2000/svg">
<path opacity="0.64" fill-rule="evenodd" clip-rule="evenodd" d="M0.00478554 14.2343C0.00478554 13.3867 -0.167521 10.0419 2.33572 7.38823C4.02051 5.60231 6.54194 5.29255 9.55732 5.15129V0.833424C9.55732 0.373137 9.91132 0 10.348 0C10.5444 0 10.7338 0.0770583 10.8793 0.216168L17.7406 6.7773C18.064 7.08657 18.0883 7.61365 17.7949 7.95455C17.7795 7.97244 17.7634 7.98962 17.7466 8.00604L10.8853 14.7037C10.5649 15.0165 10.0646 14.9962 9.76788 14.6585C9.63252 14.5045 9.55732 14.3022 9.55732 14.0922V9.80074C7.64279 9.85623 6.27904 9.98459 5.03999 10.4001C3.26371 10.9957 1.88921 12.6809 0.916494 15.4555L0.916462 15.4555C0.801743 15.7827 0.505791 16 0.174816 16H0C0 15.4905 0.00478554 14.6833 0.00478554 14.2343Z" fill="#010F07"/>
</svg>
