<svg width="16" height="16" viewBox="0 0 16 16" fill="none" xmlns="http://www.w3.org/2000/svg">
<path fill-rule="evenodd" clip-rule="evenodd" d="M14.6666 8.00016C14.6666 11.6821 11.6818 14.6668 7.99992 14.6668C4.31802 14.6668 1.33325 11.6821 1.33325 8.00016C1.33325 4.31826 4.31802 1.3335 7.99992 1.3335C11.6818 1.3335 14.6666 4.31826 14.6666 8.00016ZM8.04073 3.00016C7.74223 3.00016 7.50025 3.24214 7.50025 3.54064V4.25787C7.45967 4.26671 7.41913 4.27616 7.37865 4.28622C7.04319 4.36955 6.74197 4.50121 6.47497 4.68122C6.20797 4.86122 5.99233 5.09121 5.82802 5.37122C5.66372 5.65122 5.58156 5.98788 5.58156 6.38122C5.58156 6.70122 5.63462 6.97288 5.74073 7.19622C5.84685 7.41955 5.98719 7.60955 6.16177 7.76622C6.33634 7.92288 6.53487 8.05122 6.75737 8.15122C6.97987 8.25122 7.2075 8.33788 7.44026 8.41122C7.67987 8.48455 7.89381 8.55288 8.08208 8.61622C8.27034 8.67955 8.4278 8.74955 8.55445 8.82622C8.68111 8.90288 8.77866 8.98788 8.84712 9.08122C8.91558 9.17455 8.94981 9.28788 8.94981 9.42122C8.94981 9.56122 8.92243 9.68122 8.86766 9.78122C8.81289 9.88122 8.7393 9.96122 8.64688 10.0212C8.55445 10.0812 8.44663 10.1245 8.3234 10.1512C8.20017 10.1779 8.07352 10.1912 7.94345 10.1912C7.65591 10.1912 7.36667 10.1195 7.07571 9.97622C6.78475 9.83288 6.55028 9.65455 6.37228 9.44122L5.22215 10.5812C5.54391 10.9079 5.94782 11.1595 6.4339 11.3362C6.78064 11.4622 7.13609 11.5433 7.50025 11.5794V12.4597C7.50025 12.7582 7.74223 13.0002 8.04073 13.0002C8.33922 13.0002 8.5812 12.7582 8.5812 12.4597V11.5495C8.71592 11.5272 8.84906 11.4978 8.98062 11.4612C9.31608 11.3679 9.61388 11.2246 9.87403 11.0312C10.1342 10.8379 10.3413 10.5929 10.4953 10.2962C10.6493 9.99955 10.7264 9.64788 10.7264 9.24122C10.7264 8.88788 10.6545 8.59288 10.5107 8.35622C10.3669 8.11955 10.1855 7.92122 9.96645 7.76122C9.74737 7.60122 9.50434 7.47288 9.23735 7.37622C8.97035 7.27955 8.71363 7.19122 8.46717 7.11122C8.29602 7.05788 8.14198 7.00622 8.00506 6.95622C7.86814 6.90622 7.75005 6.85122 7.65078 6.79122C7.55151 6.73122 7.4762 6.66122 7.42486 6.58122C7.37351 6.50122 7.34784 6.40122 7.34784 6.28122C7.34784 6.14122 7.38036 6.02622 7.4454 5.93622C7.51043 5.84622 7.59087 5.77288 7.68672 5.71622C7.78256 5.65955 7.89039 5.62122 8.01019 5.60122C8.13 5.58122 8.24809 5.57122 8.36448 5.57122C8.5904 5.57122 8.82487 5.62622 9.06791 5.73622C9.31094 5.84622 9.50776 5.99455 9.65838 6.18122L10.7777 5.03122C10.4559 4.74455 10.0811 4.52788 9.65324 4.38122C9.28972 4.25661 8.93237 4.18493 8.5812 4.16619V3.54064C8.5812 3.24214 8.33922 3.00016 8.04073 3.00016Z" fill="white"/>
</svg>
