<svg xmlns="http://www.w3.org/2000/svg" fill="none" viewBox="0 0 14 14" height="14" width="14"><g id="invisible-2"><path id="Union" fill="#408aca" fill-rule="evenodd" d="M1.615 3.54a1 1 0 0 1 1.354 0.407 4.11 4.11 0 0 0 0.832 1.068c0.806 0.747 1.933 1.223 3.2 1.223 1.262 0 2.386 -0.473 3.191 -1.215a4.107 4.107 0 0 0 0.84 -1.075 1 1 0 1 1 1.76 0.947 6.012 6.012 0 0 1 -0.441 0.7l1.291 1.083a1 1 0 1 1 -1.284 1.533l-1.44 -1.207a6.63 6.63 0 0 1 -1.147 0.653l0.617 1.553a1 1 0 0 1 -1.86 0.738l-0.698 -1.76a6.966 6.966 0 0 1 -1.663 0l-0.7 1.76A1 1 0 0 1 3.61 9.21l0.617 -1.555a6.58 6.58 0 0 1 -1.144 -0.651L1.642 8.21A1 1 0 0 1 0.358 6.678L1.65 5.595a6.007 6.007 0 0 1 -0.442 -0.7 1 1 0 0 1 0.407 -1.354Z" clip-rule="evenodd" stroke-width="1"></path></g></svg>