<svg width="20" height="20" viewBox="0 0 20 20" fill="none" xmlns="http://www.w3.org/2000/svg">
<path fill-rule="evenodd" clip-rule="evenodd" d="M18.3333 10.0001C18.3333 14.6025 14.6024 18.3334 9.99999 18.3334C5.39762 18.3334 1.66666 14.6025 1.66666 10.0001C1.66666 5.39771 5.39762 1.66675 9.99999 1.66675C14.6024 1.66675 18.3333 5.39771 18.3333 10.0001ZM10.051 3.75008C9.67788 3.75008 9.3754 4.05256 9.3754 4.42568V5.32221C9.32467 5.33326 9.274 5.34508 9.2234 5.35765C8.80407 5.46181 8.42755 5.6264 8.0938 5.8514C7.76006 6.0764 7.4905 6.3639 7.28511 6.7139C7.07973 7.0639 6.97704 7.48473 6.97704 7.9764C6.97704 8.3764 7.04336 8.71598 7.176 8.99515C7.30865 9.27431 7.48407 9.51181 7.70229 9.70765C7.92051 9.90348 8.16868 10.0639 8.4468 10.1889C8.72492 10.3139 9.00946 10.4222 9.30041 10.5139C9.59993 10.6056 9.86735 10.691 10.1027 10.7701C10.338 10.8493 10.5348 10.9368 10.6932 11.0326C10.8515 11.1285 10.9734 11.2347 11.059 11.3514C11.1446 11.4681 11.1874 11.6097 11.1874 11.7764C11.1874 11.9514 11.1531 12.1014 11.0847 12.2264C11.0162 12.3514 10.9242 12.4514 10.8087 12.5264C10.6932 12.6014 10.5584 12.6556 10.4043 12.6889C10.2503 12.7222 10.092 12.7389 9.92939 12.7389C9.56997 12.7389 9.20842 12.6493 8.84472 12.4701C8.48103 12.291 8.18793 12.0681 7.96544 11.8014L6.52777 13.2264C6.92998 13.6347 7.43487 13.9493 8.04246 14.1701C8.47589 14.3277 8.9202 14.429 9.3754 14.4742V15.5745C9.3754 15.9476 9.67788 16.2501 10.051 16.2501C10.4241 16.2501 10.7266 15.9476 10.7266 15.5745V14.4367C10.895 14.4089 11.0614 14.3722 11.2259 14.3264C11.6452 14.2097 12.0174 14.0306 12.3426 13.7889C12.6678 13.5472 12.9267 13.241 13.1192 12.8701C13.3118 12.4993 13.408 12.0597 13.408 11.5514C13.408 11.1097 13.3182 10.741 13.1385 10.4451C12.9588 10.1493 12.732 9.9014 12.4581 9.7014C12.1843 9.5014 11.8805 9.34098 11.5468 9.22015C11.213 9.09931 10.8921 8.9889 10.584 8.8889C10.3701 8.82223 10.1776 8.75765 10.0064 8.69515C9.83526 8.63265 9.68764 8.5639 9.56356 8.4889C9.43947 8.4139 9.34534 8.3264 9.28116 8.2264C9.21698 8.1264 9.18489 8.0014 9.18489 7.8514C9.18489 7.6764 9.22554 7.53265 9.30683 7.42015C9.38813 7.30765 9.48868 7.21598 9.60849 7.14515C9.72829 7.07431 9.86307 7.0264 10.0128 7.0014C10.1626 6.9764 10.3102 6.9639 10.4557 6.9639C10.7381 6.9639 11.0312 7.03265 11.335 7.17015C11.6388 7.30765 11.8848 7.49306 12.0731 7.7264L13.4722 6.2889C13.07 5.93056 12.6015 5.65973 12.0666 5.4764C11.6122 5.32064 11.1656 5.23104 10.7266 5.20762V4.42568C10.7266 4.05256 10.4241 3.75008 10.051 3.75008Z" fill="#22A45D"/>
</svg>
